<?xml version="1.0" encoding="UTF-8" standalone="no"?>
<!-- Created with Inkscape (http://www.inkscape.org/) -->

<svg
   xmlns:dc="http://purl.org/dc/elements/1.1/"
   xmlns:cc="http://creativecommons.org/ns#"
   xmlns:rdf="http://www.w3.org/1999/02/22-rdf-syntax-ns#"
   xmlns:svg="http://www.w3.org/2000/svg"
   xmlns="http://www.w3.org/2000/svg"
   xmlns:sodipodi="http://sodipodi.sourceforge.net/DTD/sodipodi-0.dtd"
   xmlns:inkscape="http://www.inkscape.org/namespaces/inkscape"
   width="114.04691mm"
   height="131.69002mm"
   viewBox="0 0 404.10321 466.61817"
   id="svg2"
   version="1.1"
   inkscape:version="0.91 r13725"
   sodipodi:docname="logo.svg"
   inkscape:export-filename="D:\Google Drive\Work\KULeuven\PhDProject_RubenFaelens\Development\TDM\tdmore\logo.png"
   inkscape:export-xdpi="53.450001"
   inkscape:export-ydpi="53.450001">
  <defs
     id="defs4" />
  <sodipodi:namedview
     id="base"
     pagecolor="#ffffff"
     bordercolor="#666666"
     borderopacity="1.0"
     inkscape:pageopacity="0.0"
     inkscape:pageshadow="2"
     inkscape:zoom="0.7912582"
     inkscape:cx="84.929213"
     inkscape:cy="70.021558"
     inkscape:document-units="px"
     inkscape:current-layer="layer1"
     showgrid="false"
     inkscape:window-width="1858"
     inkscape:window-height="1057"
     inkscape:window-x="-8"
     inkscape:window-y="-8"
     inkscape:window-maximized="1"
     inkscape:snap-bbox="false"
     inkscape:bbox-nodes="true"
     fit-margin-top="0"
     fit-margin-left="0"
     fit-margin-right="0"
     fit-margin-bottom="0" />
  <metadata
     id="metadata7">
    <rdf:RDF>
      <cc:Work
         rdf:about="">
        <dc:format>image/svg+xml</dc:format>
        <dc:type
           rdf:resource="http://purl.org/dc/dcmitype/StillImage" />
        <dc:title></dc:title>
      </cc:Work>
    </rdf:RDF>
  </metadata>
  <g
     inkscape:label="Laag 1"
     inkscape:groupmode="layer"
     id="layer1"
     transform="translate(-89.377386,-132.14938)">
    <path
       sodipodi:type="star"
       style="opacity:1;fill:#00c0ff;fill-opacity:0.73023251;stroke:#000000;stroke-width:10;stroke-miterlimit:10;stroke-dasharray:none;stroke-dashoffset:0;stroke-opacity:1"
       id="path4197"
       sodipodi:sides="6"
       sodipodi:cx="291.42899"
       sodipodi:cy="365.45847"
       sodipodi:r1="227.53558"
       sodipodi:r2="197.05161"
       sodipodi:arg1="1.0471976"
       sodipodi:arg2="1.5707963"
       inkscape:flatsided="true"
       inkscape:rounded="0"
       inkscape:randomized="0"
       d="m 405.19677,562.51007 -227.53559,-1e-5 L 63.893402,365.45845 177.6612,168.40686 l 227.53559,2e-5 113.76778,197.0516 z"
       transform="matrix(0.8660254,-0.5,0.5,0.8660254,-143.68515,194.67664)" />
    <path
       id="path4217"
       style="opacity:1;fill:#0066ff;fill-opacity:1;stroke:#2f2f80;stroke-width:2;stroke-miterlimit:10;stroke-dasharray:none;stroke-dashoffset:0;stroke-opacity:1"
       d="m 140.19711,438.02956 a 13.700194,13.700194 0 0 1 -13.7002,13.70019 13.700194,13.700194 0 0 1 -13.70019,-13.70019 13.700194,13.700194 0 0 1 13.70019,-13.70019 13.700194,13.700194 0 0 1 13.7002,13.70019 z m 0.47363,11.27734 a 18.498419,18.498419 0 0 1 -14.49023,7.03125 18.498419,18.498419 0 0 1 -14.25391,-6.73047 25.443218,29.483828 0 0 0 -10.87305,24.15625 25.443218,29.483828 0 0 0 0.0566,1.83008 l 50.75196,0 a 25.443218,29.483828 0 0 0 0.0781,-1.83008 25.443218,29.483828 0 0 0 -11.26953,-24.45703 z"
       inkscape:connector-curvature="0" />
    <path
       id="path4217-8"
       style="opacity:1;fill:#0066ff;fill-opacity:1;stroke:#2f2f80;stroke-width:2;stroke-miterlimit:10;stroke-dasharray:none;stroke-dashoffset:0;stroke-opacity:1"
       d="m 440.87833,438.02956 a 13.700194,13.700194 0 0 0 13.7002,13.70019 13.700194,13.700194 0 0 0 13.70019,-13.70019 13.700194,13.700194 0 0 0 -13.70019,-13.70019 13.700194,13.700194 0 0 0 -13.7002,13.70019 z m -0.47363,11.27734 a 18.498419,18.498419 0 0 0 14.49023,7.03125 18.498419,18.498419 0 0 0 14.25391,-6.73047 25.443218,29.483828 0 0 1 10.87305,24.15625 25.443218,29.483828 0 0 1 -0.0566,1.83008 l -50.75196,0 a 25.443218,29.483828 0 0 1 -0.0781,-1.83008 25.443218,29.483828 0 0 1 11.26953,-24.45703 z"
       inkscape:connector-curvature="0" />
    <g
       id="g4336"
       transform="translate(-0.25255039,-5.4101168)">
      <text
         sodipodi:linespacing="125%"
         id="text4261"
         y="405.31424"
         x="105.52973"
         style="font-style:normal;font-variant:normal;font-weight:normal;font-stretch:normal;font-size:48.85909653px;line-height:125%;font-family:'Univers LT Std';-inkscape-font-specification:'Univers LT Std';letter-spacing:0px;word-spacing:0px;fill:#ffffff;fill-opacity:1;stroke:none;stroke-width:1px;stroke-linecap:butt;stroke-linejoin:miter;stroke-opacity:1"
         xml:space="preserve"><tspan
           style="font-size:97.71819305px;fill:#ffffff"
           y="405.31424"
           x="105.52973"
           id="tspan4263"
           sodipodi:role="line">TDMore</tspan></text>
      <path
         inkscape:connector-curvature="0"
         id="path4319"
         d="m 100.25764,321.51685 383.35289,0"
         style="fill:none;fill-rule:evenodd;stroke:#000000;stroke-width:1px;stroke-linecap:butt;stroke-linejoin:miter;stroke-opacity:1" />
      <path
         inkscape:connector-curvature="0"
         id="path4319-4"
         d="m 99.752544,420.22031 383.352886,0"
         style="fill:none;fill-rule:evenodd;stroke:#000000;stroke-width:1px;stroke-linecap:butt;stroke-linejoin:miter;stroke-opacity:1" />
    </g>
    <path
       id="path4217-4-5-4"
       style="opacity:1;fill:#0066ff;fill-opacity:1;stroke:#2f2f80;stroke-width:2;stroke-miterlimit:10;stroke-dasharray:none;stroke-dashoffset:0;stroke-opacity:1"
       d="m 187.06592,438.02956 a 13.700194,13.700194 0 0 1 -13.7002,13.70019 13.700194,13.700194 0 0 1 -13.70019,-13.70019 13.700194,13.700194 0 0 1 13.70019,-13.70019 13.700194,13.700194 0 0 1 13.7002,13.70019 z m 0.47363,11.27734 a 18.498419,18.498419 0 0 1 -14.49023,7.03125 18.498419,18.498419 0 0 1 -14.25391,-6.73047 25.443218,29.483828 0 0 0 -10.87305,24.15625 25.443218,29.483828 0 0 0 0.0566,1.83008 l 50.75196,0 a 25.443218,29.483828 0 0 0 0.0781,-1.83008 25.443218,29.483828 0 0 0 -11.26953,-24.45703 z"
       inkscape:connector-curvature="0" />
    <path
       id="path4217-4-5-4-9"
       style="opacity:1;fill:#0066ff;fill-opacity:1;stroke:#2f2f80;stroke-width:2;stroke-miterlimit:10;stroke-dasharray:none;stroke-dashoffset:0;stroke-opacity:1"
       d="m 233.93473,438.02956 a 13.700194,13.700194 0 0 1 -13.7002,13.70019 13.700194,13.700194 0 0 1 -13.70019,-13.70019 13.700194,13.700194 0 0 1 13.70019,-13.70019 13.700194,13.700194 0 0 1 13.7002,13.70019 z m 0.47363,11.27734 a 18.498419,18.498419 0 0 1 -14.49023,7.03125 18.498419,18.498419 0 0 1 -14.25391,-6.73047 25.443218,29.483828 0 0 0 -10.87305,24.15625 25.443218,29.483828 0 0 0 0.0566,1.83008 l 50.75196,0 a 25.443218,29.483828 0 0 0 0.0781,-1.83008 25.443218,29.483828 0 0 0 -11.26953,-24.45703 z"
       inkscape:connector-curvature="0" />
    <path
       id="path4217-4-5-4-7"
       style="opacity:1;fill:#0066ff;fill-opacity:1;stroke:#2f2f80;stroke-width:2;stroke-miterlimit:10;stroke-dasharray:none;stroke-dashoffset:0;stroke-opacity:1"
       d="m 280.80352,438.02956 a 13.700194,13.700194 0 0 1 -13.7002,13.70019 13.700194,13.700194 0 0 1 -13.70019,-13.70019 13.700194,13.700194 0 0 1 13.70019,-13.70019 13.700194,13.700194 0 0 1 13.7002,13.70019 z m 0.47363,11.27734 a 18.498419,18.498419 0 0 1 -14.49023,7.03125 18.498419,18.498419 0 0 1 -14.25391,-6.73047 25.443218,29.483828 0 0 0 -10.87305,24.15625 25.443218,29.483828 0 0 0 0.0566,1.83008 l 50.75196,0 a 25.443218,29.483828 0 0 0 0.0781,-1.83008 25.443218,29.483828 0 0 0 -11.26953,-24.45703 z"
       inkscape:connector-curvature="0" />
    <path
       id="path4217-4-5-4-9-2"
       style="opacity:1;fill:#0066ff;fill-opacity:1;stroke:#2f2f80;stroke-width:2;stroke-miterlimit:10;stroke-dasharray:none;stroke-dashoffset:0;stroke-opacity:1"
       d="m 327.67233,438.02956 a 13.700194,13.700194 0 0 1 -13.7002,13.70019 13.700194,13.700194 0 0 1 -13.70019,-13.70019 13.700194,13.700194 0 0 1 13.70019,-13.70019 13.700194,13.700194 0 0 1 13.7002,13.70019 z m 0.47363,11.27734 a 18.498419,18.498419 0 0 1 -14.49023,7.03125 18.498419,18.498419 0 0 1 -14.25391,-6.73047 25.443218,29.483828 0 0 0 -10.87305,24.15625 25.443218,29.483828 0 0 0 0.0566,1.83008 l 50.75196,0 a 25.443218,29.483828 0 0 0 0.0781,-1.83008 25.443218,29.483828 0 0 0 -11.26953,-24.45703 z"
       inkscape:connector-curvature="0" />
    <path
       id="path4217-4-5-4-7-3"
       style="opacity:1;fill:#0066ff;fill-opacity:1;stroke:#2f2f80;stroke-width:2;stroke-miterlimit:10;stroke-dasharray:none;stroke-dashoffset:0;stroke-opacity:1"
       d="m 374.54113,438.02956 a 13.700194,13.700194 0 0 1 -13.7002,13.70019 13.700194,13.700194 0 0 1 -13.70019,-13.70019 13.700194,13.700194 0 0 1 13.70019,-13.70019 13.700194,13.700194 0 0 1 13.7002,13.70019 z m 0.47363,11.27734 a 18.498419,18.498419 0 0 1 -14.49023,7.03125 18.498419,18.498419 0 0 1 -14.25391,-6.73047 25.443218,29.483828 0 0 0 -10.87305,24.15625 25.443218,29.483828 0 0 0 0.0566,1.83008 l 50.75196,0 a 25.443218,29.483828 0 0 0 0.0781,-1.83008 25.443218,29.483828 0 0 0 -11.26953,-24.45703 z"
       inkscape:connector-curvature="0" />
    <path
       id="path4217-4-5-4-9-2-1"
       style="opacity:1;fill:#0066ff;fill-opacity:1;stroke:#2f2f80;stroke-width:2;stroke-miterlimit:10;stroke-dasharray:none;stroke-dashoffset:0;stroke-opacity:1"
       d="m 421.40997,438.02956 a 13.700194,13.700194 0 0 1 -13.7002,13.70019 13.700194,13.700194 0 0 1 -13.70019,-13.70019 13.700194,13.700194 0 0 1 13.70019,-13.70019 13.700194,13.700194 0 0 1 13.7002,13.70019 z m 0.47363,11.27734 a 18.498419,18.498419 0 0 1 -14.49023,7.03125 18.498419,18.498419 0 0 1 -14.25391,-6.73047 25.443218,29.483828 0 0 0 -10.87305,24.15625 25.443218,29.483828 0 0 0 0.0566,1.83008 l 50.75196,0 a 25.443218,29.483828 0 0 0 0.0781,-1.83008 25.443218,29.483828 0 0 0 -11.26953,-24.45703 z"
       inkscape:connector-curvature="0" />
    <path
       id="path4217-9"
       style="opacity:1;fill:#0066ff;fill-opacity:1;stroke:#2f2f80;stroke-width:2;stroke-miterlimit:10;stroke-dasharray:none;stroke-dashoffset:0;stroke-opacity:1"
       d="m 173.18353,456.8883 a 13.700194,13.700194 0 0 1 -13.7002,13.70019 13.700194,13.700194 0 0 1 -13.70019,-13.70019 13.700194,13.700194 0 0 1 13.70019,-13.70019 13.700194,13.700194 0 0 1 13.7002,13.70019 z m 0.47363,11.27734 a 18.498419,18.498419 0 0 1 -14.49023,7.03125 18.498419,18.498419 0 0 1 -14.25391,-6.73047 25.443218,29.483828 0 0 0 -10.87305,24.15625 25.443218,29.483828 0 0 0 0.0566,1.83008 l 50.75196,0 a 25.443218,29.483828 0 0 0 0.0781,-1.83008 25.443218,29.483828 0 0 0 -11.26953,-24.45703 z"
       inkscape:connector-curvature="0" />
    <path
       id="path4217-9-5"
       style="opacity:1;fill:#0066ff;fill-opacity:1;stroke:#2f2f80;stroke-width:2;stroke-miterlimit:10;stroke-dasharray:none;stroke-dashoffset:0;stroke-opacity:1"
       d="m 408.2484,456.88833 a 13.700194,13.700194 0 0 0 13.7002,13.70019 13.700194,13.700194 0 0 0 13.70019,-13.70019 13.700194,13.700194 0 0 0 -13.70019,-13.70019 13.700194,13.700194 0 0 0 -13.7002,13.70019 z m -0.47363,11.27734 a 18.498419,18.498419 0 0 0 14.49023,7.03125 18.498419,18.498419 0 0 0 14.25391,-6.73047 25.443218,29.483828 0 0 1 10.87305,24.15625 25.443218,29.483828 0 0 1 -0.0566,1.83008 l -50.75196,0 a 25.443218,29.483828 0 0 1 -0.0781,-1.83008 25.443218,29.483828 0 0 1 11.26953,-24.45703 z"
       inkscape:connector-curvature="0" />
    <path
       id="path4217-4-5-4-9-8"
       style="opacity:1;fill:#0066ff;fill-opacity:1;stroke:#2f2f80;stroke-width:2;stroke-miterlimit:10;stroke-dasharray:none;stroke-dashoffset:0;stroke-opacity:1"
       d="m 216.92776,456.8883 a 13.700194,13.700194 0 0 1 -13.7002,13.70019 13.700194,13.700194 0 0 1 -13.70019,-13.70019 13.700194,13.700194 0 0 1 13.70019,-13.70019 13.700194,13.700194 0 0 1 13.7002,13.70019 z m 0.47363,11.27734 a 18.498419,18.498419 0 0 1 -14.49023,7.03125 18.498419,18.498419 0 0 1 -14.25391,-6.73047 25.443218,29.483828 0 0 0 -10.87305,24.15625 25.443218,29.483828 0 0 0 0.0566,1.83008 l 50.75196,0 a 25.443218,29.483828 0 0 0 0.0781,-1.83008 25.443218,29.483828 0 0 0 -11.26953,-24.45703 z"
       inkscape:connector-curvature="0" />
    <path
       id="path4217-4-5-4-7-1"
       style="opacity:1;fill:#0066ff;fill-opacity:1;stroke:#2f2f80;stroke-width:2;stroke-miterlimit:10;stroke-dasharray:none;stroke-dashoffset:0;stroke-opacity:1"
       d="m 260.67197,456.8883 a 13.700194,13.700194 0 0 1 -13.7002,13.70019 13.700194,13.700194 0 0 1 -13.70019,-13.70019 13.700194,13.700194 0 0 1 13.70019,-13.70019 13.700194,13.700194 0 0 1 13.7002,13.70019 z m 0.47363,11.27734 a 18.498419,18.498419 0 0 1 -14.49023,7.03125 18.498419,18.498419 0 0 1 -14.25391,-6.73047 25.443218,29.483828 0 0 0 -10.87305,24.15625 25.443218,29.483828 0 0 0 0.0566,1.83008 l 50.75196,0 a 25.443218,29.483828 0 0 0 0.0781,-1.83008 25.443218,29.483828 0 0 0 -11.26953,-24.45703 z"
       inkscape:connector-curvature="0" />
    <path
       id="path4217-4-5-4-9-2-8"
       style="opacity:1;fill:#0066ff;fill-opacity:1;stroke:#2f2f80;stroke-width:2;stroke-miterlimit:10;stroke-dasharray:none;stroke-dashoffset:0;stroke-opacity:1"
       d="m 304.41619,456.8883 a 13.700194,13.700194 0 0 1 -13.7002,13.70019 13.700194,13.700194 0 0 1 -13.70019,-13.70019 13.700194,13.700194 0 0 1 13.70019,-13.70019 13.700194,13.700194 0 0 1 13.7002,13.70019 z m 0.47363,11.27734 a 18.498419,18.498419 0 0 1 -14.49023,7.03125 18.498419,18.498419 0 0 1 -14.25391,-6.73047 25.443218,29.483828 0 0 0 -10.87305,24.15625 25.443218,29.483828 0 0 0 0.0566,1.83008 l 50.75196,0 a 25.443218,29.483828 0 0 0 0.0781,-1.83008 25.443218,29.483828 0 0 0 -11.26953,-24.45703 z"
       inkscape:connector-curvature="0" />
    <path
       id="path4217-4-5-4-7-3-2"
       style="opacity:1;fill:#0066ff;fill-opacity:1;stroke:#2f2f80;stroke-width:2;stroke-miterlimit:10;stroke-dasharray:none;stroke-dashoffset:0;stroke-opacity:1"
       d="m 348.16042,456.8883 a 13.700194,13.700194 0 0 1 -13.7002,13.70019 13.700194,13.700194 0 0 1 -13.70019,-13.70019 13.700194,13.700194 0 0 1 13.70019,-13.70019 13.700194,13.700194 0 0 1 13.7002,13.70019 z m 0.47363,11.27734 a 18.498419,18.498419 0 0 1 -14.49023,7.03125 18.498419,18.498419 0 0 1 -14.25391,-6.73047 25.443218,29.483828 0 0 0 -10.87305,24.15625 25.443218,29.483828 0 0 0 0.0566,1.83008 l 50.75196,0 a 25.443218,29.483828 0 0 0 0.0781,-1.83008 25.443218,29.483828 0 0 0 -11.26953,-24.45703 z"
       inkscape:connector-curvature="0" />
    <path
       id="path4217-4-5-4-9-2-1-7"
       style="opacity:1;fill:#0066ff;fill-opacity:1;stroke:#2f2f80;stroke-width:2;stroke-miterlimit:10;stroke-dasharray:none;stroke-dashoffset:0;stroke-opacity:1"
       d="m 391.90463,456.8883 a 13.700194,13.700194 0 0 1 -13.7002,13.70019 13.700194,13.700194 0 0 1 -13.70019,-13.70019 13.700194,13.700194 0 0 1 13.70019,-13.70019 13.700194,13.700194 0 0 1 13.7002,13.70019 z m 0.47363,11.27734 a 18.498419,18.498419 0 0 1 -14.49023,7.03125 18.498419,18.498419 0 0 1 -14.25391,-6.73047 25.443218,29.483828 0 0 0 -10.87305,24.15625 25.443218,29.483828 0 0 0 0.0566,1.83008 l 50.75196,0 a 25.443218,29.483828 0 0 0 0.0781,-1.83008 25.443218,29.483828 0 0 0 -11.26953,-24.45703 z"
       inkscape:connector-curvature="0" />
    <path
       id="path4217-4-5-4-9-8-6"
       style="opacity:1;fill:#0066ff;fill-opacity:1;stroke:#2f2f80;stroke-width:2;stroke-miterlimit:10;stroke-dasharray:none;stroke-dashoffset:0;stroke-opacity:1"
       d="m 233.79818,475.74712 a 13.700194,13.700194 0 0 1 -13.7002,13.70019 13.700194,13.700194 0 0 1 -13.70019,-13.70019 13.700194,13.700194 0 0 1 13.70019,-13.70019 13.700194,13.700194 0 0 1 13.7002,13.70019 z m 0.47363,11.27734 a 18.498419,18.498419 0 0 1 -14.49023,7.03125 18.498419,18.498419 0 0 1 -14.25391,-6.73047 25.443218,29.483828 0 0 0 -10.87305,24.15625 25.443218,29.483828 0 0 0 0.0566,1.83008 l 50.75196,0 a 25.443218,29.483828 0 0 0 0.0781,-1.83008 25.443218,29.483828 0 0 0 -11.26953,-24.45703 z"
       inkscape:connector-curvature="0" />
    <path
       id="path4217-4-5-4-7-1-5"
       style="opacity:1;fill:#f40b0b;fill-opacity:1;stroke:#802f51;stroke-width:2;stroke-miterlimit:10;stroke-dasharray:none;stroke-dashoffset:0;stroke-opacity:1"
       d="m 277.54239,475.74712 a 13.700194,13.700194 0 0 1 -13.7002,13.70019 13.700194,13.700194 0 0 1 -13.70019,-13.70019 13.700194,13.700194 0 0 1 13.70019,-13.70019 13.700194,13.700194 0 0 1 13.7002,13.70019 z m 0.47363,11.27734 a 18.498419,18.498419 0 0 1 -14.49023,7.03125 18.498419,18.498419 0 0 1 -14.25391,-6.73047 25.443218,29.483828 0 0 0 -10.87305,24.15625 25.443218,29.483828 0 0 0 0.0566,1.83008 l 50.75196,0 a 25.443218,29.483828 0 0 0 0.0781,-1.83008 25.443218,29.483828 0 0 0 -11.26953,-24.45703 z"
       inkscape:connector-curvature="0" />
    <path
       id="path4217-4-5-4-9-2-8-4"
       style="opacity:1;fill:#0066ff;fill-opacity:1;stroke:#2f2f80;stroke-width:2;stroke-miterlimit:10;stroke-dasharray:none;stroke-dashoffset:0;stroke-opacity:1"
       d="m 321.28661,475.74712 a 13.700194,13.700194 0 0 1 -13.7002,13.70019 13.700194,13.700194 0 0 1 -13.70019,-13.70019 13.700194,13.700194 0 0 1 13.70019,-13.70019 13.700194,13.700194 0 0 1 13.7002,13.70019 z m 0.47363,11.27734 a 18.498419,18.498419 0 0 1 -14.49023,7.03125 18.498419,18.498419 0 0 1 -14.25391,-6.73047 25.443218,29.483828 0 0 0 -10.87305,24.15625 25.443218,29.483828 0 0 0 0.0566,1.83008 l 50.75196,0 a 25.443218,29.483828 0 0 0 0.0781,-1.83008 25.443218,29.483828 0 0 0 -11.26953,-24.45703 z"
       inkscape:connector-curvature="0" />
    <path
       id="path4217-4-5-4-7-3-2-3"
       style="opacity:1;fill:#0066ff;fill-opacity:1;stroke:#2f2f80;stroke-width:2;stroke-miterlimit:10;stroke-dasharray:none;stroke-dashoffset:0;stroke-opacity:1"
       d="m 365.03084,475.74712 a 13.700194,13.700194 0 0 1 -13.7002,13.70019 13.700194,13.700194 0 0 1 -13.70019,-13.70019 13.700194,13.700194 0 0 1 13.70019,-13.70019 13.700194,13.700194 0 0 1 13.7002,13.70019 z m 0.47363,11.27734 a 18.498419,18.498419 0 0 1 -14.49023,7.03125 18.498419,18.498419 0 0 1 -14.25391,-6.73047 25.443218,29.483828 0 0 0 -10.87305,24.15625 25.443218,29.483828 0 0 0 0.0566,1.83008 l 50.75196,0 a 25.443218,29.483828 0 0 0 0.0781,-1.83008 25.443218,29.483828 0 0 0 -11.26953,-24.45703 z"
       inkscape:connector-curvature="0" />
    <path
       id="path4217-4"
       style="opacity:1;fill:#0066ff;fill-opacity:1;stroke:#2f2f80;stroke-width:2;stroke-miterlimit:10;stroke-dasharray:none;stroke-dashoffset:0;stroke-opacity:1"
       d="m 206.16996,475.74712 a 13.700194,13.700194 0 0 1 -13.7002,13.70019 13.700194,13.700194 0 0 1 -13.70019,-13.70019 13.700194,13.700194 0 0 1 13.70019,-13.70019 13.700194,13.700194 0 0 1 13.7002,13.70019 z m 0.47363,11.27734 a 18.498419,18.498419 0 0 1 -14.49023,7.03125 18.498419,18.498419 0 0 1 -14.25391,-6.73047 25.443218,29.483828 0 0 0 -10.87305,24.15625 25.443218,29.483828 0 0 0 0.0566,1.83008 l 50.75196,0 a 25.443218,29.483828 0 0 0 0.0781,-1.83008 25.443218,29.483828 0 0 0 -11.26953,-24.45703 z"
       inkscape:connector-curvature="0" />
    <path
       id="path4217-4-26"
       style="opacity:1;fill:#0066ff;fill-opacity:1;stroke:#2f2f80;stroke-width:2;stroke-miterlimit:10;stroke-dasharray:none;stroke-dashoffset:0;stroke-opacity:1"
       d="m 375.61849,475.74712 a 13.700194,13.700194 0 0 0 13.7002,13.70019 13.700194,13.700194 0 0 0 13.70019,-13.70019 13.700194,13.700194 0 0 0 -13.70019,-13.70019 13.700194,13.700194 0 0 0 -13.7002,13.70019 z m -0.47363,11.27734 a 18.498419,18.498419 0 0 0 14.49023,7.03125 18.498419,18.498419 0 0 0 14.25391,-6.73047 25.443218,29.483828 0 0 1 10.87305,24.15625 25.443218,29.483828 0 0 1 -0.0566,1.83008 l -50.75196,0 a 25.443218,29.483828 0 0 1 -0.0781,-1.83008 25.443218,29.483828 0 0 1 11.26953,-24.45703 z"
       inkscape:connector-curvature="0" />
    <path
       id="path4217-4-2"
       style="opacity:1;fill:#0066ff;fill-opacity:1;stroke:#2f2f80;stroke-width:2;stroke-miterlimit:10;stroke-dasharray:none;stroke-dashoffset:0;stroke-opacity:1"
       d="m 239.15637,494.60583 a 13.700194,13.700194 0 0 1 -13.7002,13.70019 13.700194,13.700194 0 0 1 -13.70019,-13.70019 13.700194,13.700194 0 0 1 13.70019,-13.70019 13.700194,13.700194 0 0 1 13.7002,13.70019 z m 0.47363,11.27734 a 18.498419,18.498419 0 0 1 -14.49023,7.03125 18.498419,18.498419 0 0 1 -14.25391,-6.73047 25.443218,29.483828 0 0 0 -10.87305,24.15625 25.443218,29.483828 0 0 0 0.0566,1.83008 l 50.75196,0 a 25.443218,29.483828 0 0 0 0.0781,-1.83008 25.443218,29.483828 0 0 0 -11.26953,-24.45703 z"
       inkscape:connector-curvature="0" />
    <path
       id="path4217-4-5-8-8"
       style="opacity:1;fill:#0066ff;fill-opacity:1;stroke:#2f2f80;stroke-width:2;stroke-miterlimit:10;stroke-dasharray:none;stroke-dashoffset:0;stroke-opacity:1"
       d="m 342.9886,494.60585 a 13.700194,13.700194 0 0 0 13.7002,13.70019 13.700194,13.700194 0 0 0 13.70019,-13.70019 13.700194,13.700194 0 0 0 -13.70019,-13.70019 13.700194,13.700194 0 0 0 -13.7002,13.70019 z m -0.47363,11.27734 a 18.498419,18.498419 0 0 0 14.49023,7.03125 18.498419,18.498419 0 0 0 14.25391,-6.73047 25.443218,29.483828 0 0 1 10.87305,24.15625 25.443218,29.483828 0 0 1 -0.0566,1.83008 l -50.75196,0 a 25.443218,29.483828 0 0 1 -0.0781,-1.83008 25.443218,29.483828 0 0 1 11.26953,-24.45703 z"
       inkscape:connector-curvature="0" />
    <path
       id="path4217-4-5-4-7-1-5-6"
       style="opacity:1;fill:#0066ff;fill-opacity:1;stroke:#2f2f80;stroke-width:2;stroke-miterlimit:10;stroke-dasharray:none;stroke-dashoffset:0;stroke-opacity:1"
       d="m 282.90061,494.60583 a 13.700194,13.700194 0 0 1 -13.7002,13.70019 13.700194,13.700194 0 0 1 -13.70019,-13.70019 13.700194,13.700194 0 0 1 13.70019,-13.70019 13.700194,13.700194 0 0 1 13.7002,13.70019 z m 0.47363,11.27734 a 18.498419,18.498419 0 0 1 -14.49023,7.03125 18.498419,18.498419 0 0 1 -14.25391,-6.73047 25.443218,29.483828 0 0 0 -10.87305,24.15625 25.443218,29.483828 0 0 0 0.0566,1.83008 l 50.75196,0 a 25.443218,29.483828 0 0 0 0.0781,-1.83008 25.443218,29.483828 0 0 0 -11.26953,-24.45703 z"
       inkscape:connector-curvature="0" />
    <path
       id="path4217-4-5-4-7-3-2-3-6"
       style="opacity:1;fill:#0066ff;fill-opacity:1;stroke:#2f2f80;stroke-width:2;stroke-miterlimit:10;stroke-dasharray:none;stroke-dashoffset:0;stroke-opacity:1"
       d="m 326.64479,494.60583 a 13.700194,13.700194 0 0 1 -13.7002,13.70019 13.700194,13.700194 0 0 1 -13.70019,-13.70019 13.700194,13.700194 0 0 1 13.70019,-13.70019 13.700194,13.700194 0 0 1 13.7002,13.70019 z m 0.47363,11.27734 a 18.498419,18.498419 0 0 1 -14.49023,7.03125 18.498419,18.498419 0 0 1 -14.25391,-6.73047 25.443218,29.483828 0 0 0 -10.87305,24.15625 25.443218,29.483828 0 0 0 0.0566,1.83008 l 50.75196,0 a 25.443218,29.483828 0 0 0 0.0781,-1.83008 25.443218,29.483828 0 0 0 -11.26953,-24.45703 z"
       inkscape:connector-curvature="0" />
    <path
       id="path4217-4-5"
       style="opacity:1;fill:#0066ff;fill-opacity:1;stroke:#2f2f80;stroke-width:2;stroke-miterlimit:10;stroke-dasharray:none;stroke-dashoffset:0;stroke-opacity:1"
       d="m 272.14279,513.46465 a 13.700194,13.700194 0 0 1 -13.7002,13.70019 13.700194,13.700194 0 0 1 -13.70019,-13.70019 13.700194,13.700194 0 0 1 13.70019,-13.70019 13.700194,13.700194 0 0 1 13.7002,13.70019 z m 0.47363,11.27734 a 18.498419,18.498419 0 0 1 -14.49023,7.03125 18.498419,18.498419 0 0 1 -14.25391,-6.73047 25.443218,29.483828 0 0 0 -10.87305,24.15625 25.443218,29.483828 0 0 0 0.0566,1.83008 l 50.75196,0 a 25.443218,29.483828 0 0 0 0.0781,-1.83008 25.443218,29.483828 0 0 0 -11.26953,-24.45703 z"
       inkscape:connector-curvature="0" />
    <path
       id="path4217-4-5-8"
       style="opacity:1;fill:#0066ff;fill-opacity:1;stroke:#2f2f80;stroke-width:2;stroke-miterlimit:10;stroke-dasharray:none;stroke-dashoffset:0;stroke-opacity:1"
       d="m 310.35867,513.46465 a 13.700194,13.700194 0 0 0 13.7002,13.70019 13.700194,13.700194 0 0 0 13.70019,-13.70019 13.700194,13.700194 0 0 0 -13.70019,-13.70019 13.700194,13.700194 0 0 0 -13.7002,13.70019 z m -0.47363,11.27734 a 18.498419,18.498419 0 0 0 14.49023,7.03125 18.498419,18.498419 0 0 0 14.25391,-6.73047 25.443218,29.483828 0 0 1 10.87305,24.15625 25.443218,29.483828 0 0 1 -0.0566,1.83008 l -50.75196,0 a 25.443218,29.483828 0 0 1 -0.0781,-1.83008 25.443218,29.483828 0 0 1 11.26953,-24.45703 z"
       inkscape:connector-curvature="0" />
    <path
       id="path4217-4-5-4-7-3-2-3-6-8"
       style="opacity:1;fill:#0066ff;fill-opacity:1;stroke:#2f2f80;stroke-width:2;stroke-miterlimit:10;stroke-dasharray:none;stroke-dashoffset:0;stroke-opacity:1"
       d="m 304.95096,513.46465 a 13.700194,13.700194 0 0 1 -13.7002,13.70019 13.700194,13.700194 0 0 1 -13.70019,-13.70019 13.700194,13.700194 0 0 1 13.70019,-13.70019 13.700194,13.700194 0 0 1 13.7002,13.70019 z m 0.47363,11.27734 a 18.498419,18.498419 0 0 1 -14.49023,7.03125 18.498419,18.498419 0 0 1 -14.25391,-6.73047 25.443218,29.483828 0 0 0 -10.87305,24.15625 25.443218,29.483828 0 0 0 0.0566,1.83008 l 50.75196,0 a 25.443218,29.483828 0 0 0 0.0781,-1.83008 25.443218,29.483828 0 0 0 -11.26953,-24.45703 z"
       inkscape:connector-curvature="0" />
    <path
       id="path4217-4-58"
       style="opacity:1;fill:#0066ff;fill-opacity:1;stroke:#2f2f80;stroke-width:2;stroke-miterlimit:10;stroke-dasharray:none;stroke-dashoffset:0;stroke-opacity:1"
       d="m 305.12921,532.32335 a 13.700194,13.700194 0 0 1 -13.7002,13.70019 13.700194,13.700194 0 0 1 -13.70019,-13.70019 13.700194,13.700194 0 0 1 13.70019,-13.70019 13.700194,13.700194 0 0 1 13.7002,13.70019 z m 0.47363,11.27734 a 18.498419,18.498419 0 0 1 -14.49023,7.03125 18.498419,18.498419 0 0 1 -14.25391,-6.73047 25.443218,29.483828 0 0 0 -10.87305,24.15625 25.443218,29.483828 0 0 0 0.0566,1.83008 l 50.75196,0 a 25.443218,29.483828 0 0 0 0.0781,-1.83008 25.443218,29.483828 0 0 0 -11.26953,-24.45703 z"
       inkscape:connector-curvature="0" />
    <text
       xml:space="preserve"
       style="font-style:normal;font-variant:normal;font-weight:normal;font-stretch:normal;font-size:21.42702293px;line-height:125%;font-family:'Univers LT Std';-inkscape-font-specification:'Univers LT Std';letter-spacing:0px;word-spacing:0px;fill:#000000;fill-opacity:1;stroke:none;stroke-width:1px;stroke-linecap:butt;stroke-linejoin:miter;stroke-opacity:1"
       x="328.59964"
       y="314.51465"
       id="text4524"
       sodipodi:linespacing="125%"><tspan
         sodipodi:role="line"
         id="tspan4526"
         x="328.59964"
         y="314.51465">Enabling MIPD</tspan></text>
    <path
       style="fill:#ffffff;fill-opacity:1"
       d="m 207.27326,301.16942 -1.11424,-0.19047 -0.71975,-6.0822 c -0.39582,-3.34521 -0.7353,-6.10479 -0.75434,-6.13241 -0.019,-0.0277 -0.96629,-0.42568 -2.10494,-0.88459 l -2.07032,-0.83436 -3.30642,2.69585 c -1.81851,1.48274 -3.98656,3.2217 -4.81796,3.86436 l -1.51159,1.1685 -1.00402,-0.69096 c -1.89499,-1.30415 -7.31706,-5.4938 -7.43461,-5.74478 -0.14677,-0.31336 0.35661,-1.66314 2.49221,-6.68244 0.87152,-2.04842 1.65017,-3.95385 1.73031,-4.23426 0.13033,-0.45596 0.0724,-0.61778 -0.5292,-1.5291 -0.3712,-0.56058 -0.95429,-1.33195 -1.29575,-1.71416 l -0.62087,-0.6949 -3.51113,0.55624 c -3.74709,0.59361 -8.09769,1.16788 -8.4775,1.11903 -0.1456,-0.0183 -0.99909,-1.83356 -2.31296,-4.91787 l -2.08225,-4.88819 1.81128,-1.37564 c 0.99621,-0.75659 3.18431,-2.39502 4.86239,-3.64093 l 3.05111,-2.26526 -0.26843,-2.3793 -0.26841,-2.37929 -5.62216,-2.19414 -5.62209,-2.19411 0.003,-0.45114 c 0.002,-0.24812 0.33603,-2.72076 0.74342,-5.49467 l 0.74017,-5.04356 5.73612,-0.62734 c 4.93957,-0.54022 5.75721,-0.66735 5.88787,-0.91548 0.0835,-0.15848 0.52488,-1.18752 0.98095,-2.28675 l 0.82924,-1.99859 -3.74386,-4.72827 -3.74378,-4.72825 3.27853,-4.31771 c 1.80324,-2.37475 3.30046,-4.33627 3.32727,-4.35897 0.0497,-0.042 6.11632,2.55038 9.0933,3.88578 l 1.64282,0.73694 1.99484,-1.54462 1.99485,-1.54462 -0.66537,-4.01713 c -0.84003,-5.07148 -1.09797,-7.1036 -0.93934,-7.40021 0.17154,-0.32061 9.28023,-4.22306 9.75941,-4.18122 0.0855,0.007 1.70075,2.04324 3.58981,4.52397 1.88909,2.48072 3.54175,4.52384 3.6726,4.54025 0.57906,0.0726 4.65695,-0.65642 4.85929,-0.86869 0.32901,-0.34517 1.36259,-2.81117 2.88337,-6.8793 0.74914,-2.0042 1.3661,-3.67526 1.37089,-3.71348 0.005,-0.0382 2.47758,0.24003 5.49511,0.6183 5.09711,0.63897 5.48958,0.70681 5.53013,0.9573 0.0244,0.14828 0.27502,2.23366 0.55768,4.63426 0.58429,4.96171 0.80114,6.33975 1.03634,6.58507 0.21106,0.22013 2.12143,1.08819 3.57295,1.62348 l 1.12383,0.41446 0.64399,-0.51421 c 0.35423,-0.28279 2.33097,-1.89833 4.3928,-3.5901 2.06182,-1.69173 3.85558,-3.05875 3.98612,-3.03778 0.13055,0.0204 1.94081,1.32904 4.02292,2.90684 2.08216,1.57779 3.95588,2.99714 4.16387,3.15413 0.20804,0.15703 0.36298,0.41014 0.34444,0.56259 -0.0363,0.28945 -1.6063,4.03796 -3.43206,8.18901 l -1.06852,2.42945 1.52788,1.96178 1.52788,1.96178 3.69586,-0.59457 c 2.03266,-0.32699 4.52726,-0.72725 5.54339,-0.88945 1.0162,-0.16217 1.96242,-0.31494 2.10272,-0.33948 0.19532,-0.0342 0.47973,0.48871 1.2139,2.23127 0.52738,1.25173 1.47834,3.48454 2.11317,4.96181 0.63488,1.47726 1.16343,2.73179 1.17461,2.78784 0.0152,0.0763 -5.88523,4.53977 -9.2489,6.99647 -0.2657,0.19406 -0.26276,0.36009 0.0481,2.7259 l 0.33089,2.51922 5.4066,2.03448 5.40655,2.03446 -0.12761,1.79378 c -0.0701,0.9866 -0.33796,3.47253 -0.59517,5.52436 l -0.46766,3.73059 -3.94446,0.47151 c -3.85905,0.46133 -7.79423,1.02642 -7.94078,1.14034 -0.0406,0.0315 -0.46449,0.99148 -0.9422,2.1334 l -0.86868,2.07617 1.33081,1.6818 c 0.73197,0.92497 2.45726,3.07636 3.83405,4.78089 l 2.50324,3.09913 -1.74397,2.27885 c -0.9592,1.25336 -2.43033,3.16016 -3.2693,4.23731 l -1.5252,1.95848 -0.58467,-0.17317 c -0.99923,-0.29608 -4.21449,-1.60222 -7.47688,-3.03736 -1.71935,-0.75637 -3.20229,-1.38475 -3.29538,-1.39642 -0.0932,-0.0117 -0.90347,0.56725 -1.80074,1.28653 -1.54393,1.23767 -1.62904,1.33419 -1.58778,1.80022 0.0239,0.27083 0.30045,2.18816 0.61442,4.26072 0.7726,5.0998 0.96698,6.7304 0.85629,7.18215 -0.0753,0.30787 -0.38775,0.51405 -1.6126,1.06476 -2.46857,1.10989 -7.89679,3.34286 -8.0727,3.32081 -0.0894,-0.0112 -1.83401,-2.21925 -3.87708,-4.90677 l -3.71453,-4.88642 -2.26407,0.31038 -2.26405,0.31041 -2.09924,5.63808 c -1.15455,3.10096 -2.13623,5.71834 -2.18145,5.8164 -0.0635,0.13819 -1.06068,0.0488 -4.42839,-0.39689 -2.39032,-0.31638 -4.84747,-0.66089 -5.46033,-0.76573 z m 10.08636,-26.84596 c 9.62053,0.29403 17.74122,-4.46114 22.53671,-13.19667 1.33733,-2.43607 1.48157,-2.94042 2.11033,-7.3786 0.6702,-4.73121 0.68748,-5.69557 0.14626,-8.27337 -0.67729,-3.22678 -1.68904,-5.78481 -3.24977,-8.21668 -2.52751,-3.93821 -5.10582,-6.45602 -8.68316,-8.47943 -3.05997,-1.73078 -5.48308,-2.48918 -9.56704,-2.99434 -2.43307,-0.30097 -3.13809,-0.33533 -4.39986,-0.2143 -8.56232,0.82103 -15.85967,5.68043 -19.77941,13.17129 -2.54151,4.85695 -3.37672,10.62237 -2.32071,16.01951 0.3523,1.80058 1.56001,5.10851 2.50471,6.8606 1.06088,1.96757 3.21304,4.73732 4.80914,6.18917 3.44763,3.1361 6.65699,4.79151 11.72613,6.04843 0.93789,0.2326 2.58385,0.41602 4.16667,0.46438 z m 55.47333,-45.31519 c -1.42628,-0.5383 -2.86779,-1.09094 -3.20327,-1.2281 l -0.61002,-0.24937 0.34845,-2.77963 c 0.19165,-1.52879 0.3866,-3.43844 0.43361,-4.24362 l 0.0859,-1.4639 -1.1922,-0.75235 -1.19225,-0.75235 -3.68989,1.71594 -3.68989,1.71594 -0.67168,-0.71057 c -0.84257,-0.89134 -4.00115,-4.84443 -3.98347,-4.98547 0.007,-0.0576 0.93214,-1.305 2.0554,-2.77211 1.1233,-1.46711 2.22664,-2.91908 2.45192,-3.22659 l 0.40968,-0.55913 -0.57184,-1.3213 -0.57183,-1.32129 -3.04022,-0.34061 c -1.67215,-0.18724 -3.53651,-0.39868 -4.1431,-0.46988 l -1.10285,-0.12918 -0.50032,-3.00501 c -0.27521,-1.65277 -0.47615,-3.20934 -0.4466,-3.45907 0.0702,-0.59983 0.74717,-1.08899 2.48564,-1.79872 0.74349,-0.30351 2.13394,-0.89423 3.08996,-1.31269 l 1.73823,-0.76087 0.0948,-1.57498 c 0.0521,-0.86623 0.0696,-1.63011 0.0388,-1.69751 -0.031,-0.0675 -1.03919,-0.80218 -2.24084,-1.63286 -2.53832,-1.75467 -4.01133,-2.89799 -4.07704,-3.16451 -0.0253,-0.10346 0.51186,-1.61717 1.19409,-3.36373 l 1.24047,-3.17554 3.98822,0.49995 3.98821,0.49996 0.93004,-1.38954 c 0.51151,-0.76425 0.93897,-1.46131 0.94996,-1.549 0.011,-0.0877 -0.74191,-1.75092 -1.67307,-3.69606 l -1.69311,-3.53662 2.93754,-2.2831 2.93759,-2.28309 2.39018,1.82426 c 2.70045,2.06111 3.47927,2.57274 4.02839,2.64634 0.42276,0.057 1.58174,-0.46562 2.23002,-1.00496 l 0.41727,-0.34714 0.47689,-3.80424 0.47689,-3.80424 0.61648,-0.10299 c 2.52059,-0.42112 5.4819,-0.86231 5.94928,-0.8864 l 0.5608,-0.029 0.92307,2.12018 c 0.50767,1.16609 1.17906,2.74746 1.49194,3.51415 l 0.56892,1.39398 1.8458,0.19127 1.84581,0.19128 1.72273,-2.47377 c 1.9519,-2.80273 2.68734,-3.68786 3.0285,-3.64509 0.1301,0.0163 1.62619,0.54335 3.32457,1.17119 1.69843,0.62786 3.1167,1.14514 3.15172,1.14953 0.035,0.004 -0.14128,1.78704 -0.39171,3.96146 l -0.45558,3.95345 1.3377,0.94727 1.33774,0.94728 0.68558,-0.23637 c 0.37707,-0.13001 1.97848,-0.82319 3.55873,-1.54042 l 2.87315,-1.30401 0.54303,0.53284 c 0.61532,0.60375 4.12909,5.02693 4.1106,5.17447 -0.007,0.0529 -1.07045,1.47741 -2.36409,3.16556 -1.29359,1.68818 -2.32942,3.14485 -2.30179,3.23709 0.0279,0.0922 0.3092,0.74332 0.62572,1.4469 l 0.57541,1.27923 1.47648,0.18509 c 0.81204,0.10179 2.62772,0.2779 4.03473,0.39155 l 2.55831,0.20646 0.42125,2.80759 c 0.38328,2.55426 0.58256,4.42232 0.47708,4.47217 -0.0223,0.0106 -0.29327,0.15093 -0.60183,0.31178 -0.30855,0.16085 -1.88866,0.84964 -3.51137,1.53064 l -2.95046,1.23817 -0.25102,1.6833 -0.25103,1.6833 2.85136,2.01325 c 1.56831,1.1073 3.03336,2.2084 3.25577,2.44691 l 0.40435,0.43364 -1.2902,3.26683 -1.29013,3.26684 -4.07199,-0.47045 -4.07196,-0.47044 -0.92651,1.31726 -0.92656,1.31728 1.63313,3.41918 c 0.89825,1.88057 1.61826,3.53831 1.60001,3.68391 -0.0767,0.61155 -4.93508,4.67937 -5.50309,4.60761 -0.22185,-0.0279 -4.24903,-2.93581 -6.06815,-4.38145 l -0.41164,-0.32714 -1.32665,0.53716 -1.32662,0.53716 -0.55247,4.22222 -0.55247,4.22222 -3.36425,0.48643 -3.36429,0.48642 -0.36654,-0.56809 c -0.20158,-0.31245 -0.73957,-1.42964 -1.19557,-2.48267 -1.46343,-3.37948 -1.87418,-4.23166 -2.1255,-4.4096 -0.13537,-0.0958 -0.74586,-0.19616 -1.35666,-0.22298 -1.03693,-0.0456 -1.14956,-0.0166 -1.6996,0.43753 -0.32402,0.2675 -1.20088,1.35297 -1.9486,2.41216 -1.68825,2.39146 -2.70777,3.64564 -2.93099,3.60573 -0.0942,-0.0168 -1.33824,-0.47107 -2.76453,-1.00937 z m 13.99663,-16.56484 c 4.71383,-0.56452 9.31684,-3.4483 12.04131,-7.54389 1.58232,-2.37862 2.26741,-4.35623 2.53165,-7.30789 0.15087,-1.68512 0.14334,-2.37938 -0.0378,-3.48993 -0.77423,-4.74503 -3.42191,-9.00274 -7.20674,-11.58926 -7.2827,-4.97684 -17.33678,-3.05769 -22.5777,4.30969 -1.676,2.35602 -2.52907,4.81633 -2.80208,8.08125 -0.26256,3.14005 0.16886,5.46467 1.52999,8.24392 2.1039,4.29585 5.93873,7.50402 10.54534,8.82202 1.36395,0.39024 4.55944,0.64373 5.97608,0.47409 z"
       id="path4539"
       inkscape:connector-curvature="0" />
  </g>
</svg>
